# This file uses centimeters as units for non-parametric coordinates.

mtllib canlde.mtl
g default
v 0.453510 1.200476 -0.291453
v 0.223946 1.200476 -0.490372
v -0.076720 1.200476 -0.533602
v -0.353028 1.200476 -0.407416
v -0.517252 1.200476 -0.151879
v -0.517252 1.200476 0.151879
v -0.353028 1.200476 0.407416
v -0.076720 1.200476 0.533602
v 0.223946 1.200476 0.490372
v 0.453510 1.200476 0.291453
v 0.539089 1.200476 0.000000
v 0.453510 2.640480 -0.291453
v 0.223946 2.837471 -0.490372
v -0.076720 2.837471 -0.533602
v -0.353028 2.837471 -0.407416
v -0.517252 2.680065 -0.151879
v -0.517252 2.350179 0.151879
v -0.353028 2.537709 0.407416
v -0.076720 2.640480 0.533602
v 0.223946 2.640480 0.490372
v 0.453510 2.497779 0.291453
v 0.539089 2.640480 0.000000
v 0.000000 1.200476 0.000000
v 0.000000 2.662099 0.000000
v 0.017043 2.565517 -0.009840
v 0.009840 2.565517 -0.017043
v 0.000000 2.565517 -0.019679
v -0.009840 2.565517 -0.017043
v -0.017043 2.565517 -0.009840
v -0.019679 2.565517 0.000000
v -0.017043 2.565517 0.009840
v -0.009840 2.565517 0.017043
v 0.000000 2.565517 0.019679
v 0.009840 2.565517 0.017043
v 0.017043 2.565517 0.009840
v 0.019679 2.565517 0.000000
v 0.017043 2.926947 -0.009840
v 0.009840 2.926947 -0.017043
v 0.000000 2.926947 -0.019679
v -0.009840 2.926947 -0.017043
v -0.017043 2.926947 -0.009840
v -0.019679 2.912393 -0.000000
v -0.017043 2.912393 0.009840
v -0.009840 2.912393 0.017043
v 0.000000 2.912393 0.019679
v 0.009840 2.912393 0.017043
v 0.017043 2.912393 0.009840
v 0.019679 2.912393 -0.000000
v 0.000000 2.565517 0.000000
v 0.000000 2.912393 -0.000000
vt 0.631446 0.071775
vt 0.564909 0.014120
vt 0.477763 0.001590
vt 0.397678 0.038164
vt 0.350079 0.112229
vt 0.350079 0.200271
vt 0.397678 0.274336
vt 0.477763 0.310910
vt 0.564909 0.298380
vt 0.631446 0.240725
vt 0.656250 0.156250
vt 0.375000 0.312500
vt 0.397727 0.312500
vt 0.420455 0.312500
vt 0.443182 0.312500
vt 0.465909 0.312500
vt 0.488636 0.312500
vt 0.511364 0.312500
vt 0.534091 0.312500
vt 0.556818 0.312500
vt 0.579545 0.312500
vt 0.602273 0.312500
vt 0.625000 0.312500
vt 0.375000 0.688440
vt 0.397727 0.688440
vt 0.420455 0.688440
vt 0.443182 0.688440
vt 0.465909 0.688440
vt 0.488636 0.688440
vt 0.511364 0.688440
vt 0.534091 0.688440
vt 0.556818 0.688440
vt 0.579545 0.688440
vt 0.602273 0.688440
vt 0.625000 0.688440
vt 0.631446 0.759275
vt 0.564909 0.701620
vt 0.477763 0.689090
vt 0.397678 0.725664
vt 0.350079 0.799729
vt 0.350079 0.887771
vt 0.397678 0.961836
vt 0.477763 0.998410
vt 0.564909 0.985880
vt 0.631446 0.928225
vt 0.656250 0.843750
vt 0.500000 0.150000
vt 0.500000 0.837500
vt 0.375000 0.312500
vt 0.395833 0.312500
vt 0.395833 0.688440
vt 0.375000 0.688440
vt 0.416667 0.312500
vt 0.416667 0.688440
vt 0.437500 0.312500
vt 0.437500 0.688440
vt 0.458333 0.312500
vt 0.458333 0.688440
vt 0.479167 0.312500
vt 0.479167 0.688440
vt 0.500000 0.312500
vt 0.500000 0.688440
vt 0.520833 0.312500
vt 0.520833 0.688440
vt 0.541667 0.312500
vt 0.541667 0.688440
vt 0.562500 0.312500
vt 0.562500 0.688440
vt 0.583333 0.312500
vt 0.583333 0.688440
vt 0.604167 0.312500
vt 0.604167 0.688440
vt 0.625000 0.312500
vt 0.625000 0.688440
vt 0.578125 0.020934
vt 0.635316 0.078125
vt 0.500000 0.150000
vt 0.500000 0.000000
vt 0.421875 0.020934
vt 0.364684 0.078125
vt 0.343750 0.156250
vt 0.364684 0.234375
vt 0.421875 0.291566
vt 0.500000 0.312500
vt 0.578125 0.291566
vt 0.635316 0.234375
vt 0.656250 0.156250
vt 0.635316 0.921875
vt 0.578125 0.979066
vt 0.500000 0.837500
vt 0.500000 1.000000
vt 0.421875 0.979066
vt 0.364684 0.921875
vt 0.343750 0.843750
vt 0.364684 0.765625
vt 0.421875 0.708434
vt 0.500000 0.687500
vt 0.578125 0.708434
vt 0.635316 0.765625
vt 0.656250 0.843750
vn 0.654861 0.000000 -0.755749
vn 0.654861 0.000000 -0.755749
vn 0.654861 0.000000 -0.755749
vn 0.654861 0.000000 -0.755750
vn 0.142315 0.000000 -0.989821
vn 0.142315 0.000000 -0.989821
vn 0.142315 0.000000 -0.989821
vn 0.142315 0.000000 -0.989821
vn -0.415415 0.000000 -0.909632
vn -0.415415 0.000000 -0.909632
vn -0.415415 0.000000 -0.909632
vn -0.415415 0.000000 -0.909632
vn -0.841253 0.000000 -0.540641
vn -0.841253 0.000000 -0.540641
vn -0.841253 0.000000 -0.540641
vn -0.841253 0.000000 -0.540641
vn -1.000000 0.000000 -0.000000
vn -1.000000 0.000000 -0.000000
vn -1.000000 0.000000 -0.000000
vn -1.000000 0.000000 -0.000000
vn -0.841254 0.000000 0.540641
vn -0.841254 0.000000 0.540641
vn -0.841254 0.000000 0.540641
vn -0.841254 0.000000 0.540641
vn -0.415415 0.000000 0.909632
vn -0.415415 0.000000 0.909632
vn -0.415415 0.000000 0.909632
vn -0.415415 0.000000 0.909632
vn 0.142315 0.000000 0.989821
vn 0.142315 0.000000 0.989821
vn 0.142315 0.000000 0.989821
vn 0.142315 0.000000 0.989821
vn 0.654861 0.000000 0.755750
vn 0.654861 0.000000 0.755750
vn 0.654861 0.000000 0.755750
vn 0.654861 0.000000 0.755750
vn 0.959493 0.000000 0.281733
vn 0.959493 0.000000 0.281733
vn 0.959493 0.000000 0.281733
vn 0.959493 0.000000 0.281733
vn 0.959493 0.000000 -0.281732
vn 0.959493 0.000000 -0.281732
vn 0.959493 0.000000 -0.281732
vn 0.959493 0.000000 -0.281732
vn 0.000000 -1.000000 0.000000
vn 0.000000 -1.000000 0.000000
vn 0.000000 -1.000000 0.000000
vn 0.000000 -1.000000 0.000000
vn 0.000000 -1.000000 0.000000
vn 0.000000 -1.000000 0.000000
vn 0.000000 -1.000000 0.000000
vn 0.000000 -1.000000 -0.000000
vn 0.000000 -1.000000 -0.000000
vn 0.000000 -1.000000 0.000000
vn 0.000000 -1.000000 0.000000
vn 0.000000 -1.000000 0.000000
vn 0.206282 0.945798 0.250825
vn 0.145730 0.908571 0.391485
vn -0.039918 0.960651 0.274877
vn 0.044026 0.950947 0.306206
vn 0.014092 0.922805 0.385009
vn -0.156407 0.766175 0.623308
vn -0.419600 0.850388 0.317453
vn -0.470886 0.870658 -0.142200
vn -0.179306 0.983693 0.014075
vn 0.235984 0.969579 -0.065024
vn 0.245281 0.956551 0.157632
vn 0.038883 0.969579 0.241670
vn 0.707107 0.000000 -0.707107
vn 0.707107 0.000000 -0.707107
vn 0.707107 0.000000 -0.707107
vn 0.707107 0.000000 -0.707107
vn 0.258819 0.000000 -0.965926
vn 0.258819 0.000000 -0.965926
vn 0.258819 0.000000 -0.965926
vn 0.258819 0.000000 -0.965926
vn -0.258819 0.000000 -0.965926
vn -0.258819 0.000000 -0.965926
vn -0.258819 0.000000 -0.965926
vn -0.258819 0.000000 -0.965926
vn -0.707107 0.000000 -0.707107
vn -0.707107 0.000000 -0.707107
vn -0.707107 0.000000 -0.707107
vn -0.707107 0.000000 -0.707107
vn -0.965926 0.000000 -0.258819
vn -0.965926 0.000000 -0.258819
vn -0.965926 0.000000 -0.258819
vn -0.965926 0.000000 -0.258819
vn -0.965926 0.000000 0.258819
vn -0.965926 0.000000 0.258819
vn -0.965926 0.000000 0.258819
vn -0.965926 0.000000 0.258819
vn -0.707107 0.000000 0.707107
vn -0.707107 0.000000 0.707107
vn -0.707107 0.000000 0.707107
vn -0.707107 0.000000 0.707107
vn -0.258819 0.000000 0.965926
vn -0.258819 0.000000 0.965926
vn -0.258819 0.000000 0.965926
vn -0.258819 0.000000 0.965926
vn 0.258819 0.000000 0.965926
vn 0.258819 0.000000 0.965926
vn 0.258819 0.000000 0.965926
vn 0.258819 0.000000 0.965926
vn 0.707107 0.000000 0.707107
vn 0.707107 0.000000 0.707107
vn 0.707107 0.000000 0.707107
vn 0.707107 0.000000 0.707107
vn 0.965926 0.000000 0.258819
vn 0.965926 0.000000 0.258819
vn 0.965926 0.000000 0.258819
vn 0.965926 0.000000 0.258819
vn 0.965926 -0.000000 -0.258819
vn 0.965926 -0.000000 -0.258819
vn 0.965926 -0.000000 -0.258819
vn 0.965926 -0.000000 -0.258819
vn 0.000000 -1.000000 0.000000
vn 0.000000 -1.000000 0.000000
vn 0.000000 -1.000000 0.000000
vn 0.000000 -1.000000 0.000000
vn 0.000000 -1.000000 0.000000
vn 0.000000 -1.000000 0.000000
vn 0.000000 -1.000000 0.000000
vn 0.000000 -1.000000 0.000000
vn 0.000000 -1.000000 0.000000
vn 0.000000 -1.000000 0.000000
vn 0.000000 -1.000000 0.000000
vn 0.000000 -1.000000 0.000000
vn 0.000000 -1.000000 0.000000
vn -0.231445 0.716165 0.658438
vn -0.297309 0.804003 0.514963
vn 0.000000 0.881293 0.472570
vn 0.000000 0.804001 0.594628
vn 0.297309 0.804003 0.514963
vn 0.231445 0.716165 0.658438
vn 0.000000 0.792281 0.610156
vn 0.000000 1.000000 -0.000019
vn 0.000000 1.000000 -0.000019
vn 0.000000 1.000000 0.000000
vn 0.000000 1.000000 -0.000010
vn 0.000000 1.000000 -0.000010
vn 0.000000 0.792281 0.610156
s off
g pCylinder3
usemtl initialShadingGroup
f 1/12/1 2/13/2 13/25/3 12/24/4
f 2/13/5 3/14/6 14/26/7 13/25/8
f 3/14/9 4/15/10 15/27/11 14/26/12
f 4/15/13 5/16/14 16/28/15 15/27/16
f 5/16/17 6/17/18 17/29/19 16/28/20
f 6/17/21 7/18/22 18/30/23 17/29/24
f 7/18/25 8/19/26 19/31/27 18/30/28
f 8/19/29 9/20/30 20/32/31 19/31/32
f 9/20/33 10/21/34 21/33/35 20/32/36
f 10/21/37 11/22/38 22/34/39 21/33/40
f 11/22/41 1/23/42 12/35/43 22/34/44
s 1
f 2/2/45 1/1/46 23/47/47
f 3/3/48 2/2/45 23/47/47
f 4/4/49 3/3/48 23/47/47
f 5/5/50 4/4/49 23/47/47
f 6/6/51 5/5/50 23/47/47
f 7/7/52 6/6/51 23/47/47
f 8/8/53 7/7/52 23/47/47
f 9/9/54 8/8/53 23/47/47
f 10/10/55 9/9/54 23/47/47
f 11/11/56 10/10/55 23/47/47
f 1/1/46 11/11/56 23/47/47
s 2
f 12/45/57 13/44/58 24/48/59
f 13/44/58 14/43/60 24/48/59
f 14/43/60 15/42/61 24/48/59
f 15/42/61 16/41/62 24/48/59
f 16/41/62 17/40/63 24/48/59
f 17/40/63 18/39/64 24/48/59
f 18/39/64 19/38/65 24/48/59
f 19/38/65 20/37/66 24/48/59
f 20/37/66 21/36/67 24/48/59
f 21/36/67 22/46/68 24/48/59
f 22/46/68 12/45/57 24/48/59
s off
f 25/49/69 26/50/70 38/51/71 37/52/72
f 26/50/73 27/53/74 39/54/75 38/51/76
f 27/53/77 28/55/78 40/56/79 39/54/80
f 28/55/81 29/57/82 41/58/83 40/56/84
f 29/57/85 30/59/86 42/60/87 41/58/88
f 30/59/89 31/61/90 43/62/91 42/60/92
f 31/61/93 32/63/94 44/64/95 43/62/96
f 32/63/97 33/65/98 45/66/99 44/64/100
f 33/65/101 34/67/102 46/68/103 45/66/104
f 34/67/105 35/69/106 47/70/107 46/68/108
f 35/69/109 36/71/110 48/72/111 47/70/112
f 36/71/113 25/73/114 37/74/115 48/72/116
s 3
f 26/75/117 25/76/118 49/77/119
f 27/78/120 26/75/117 49/77/119
f 28/79/121 27/78/120 49/77/119
f 29/80/122 28/79/121 49/77/119
f 30/81/123 29/80/122 49/77/119
f 31/82/124 30/81/123 49/77/119
f 32/83/125 31/82/124 49/77/119
f 33/84/126 32/83/125 49/77/119
f 34/85/127 33/84/126 49/77/119
f 35/86/128 34/85/127 49/77/119
f 36/87/129 35/86/128 49/77/119
f 25/76/118 36/87/129 49/77/119
s 4
f 37/88/130 38/89/131 50/90/132
f 38/89/131 39/91/133 50/90/132
f 39/91/133 40/92/134 50/90/132
f 40/92/134 41/93/135 50/90/132
f 41/93/135 42/94/136 50/90/132
f 42/94/136 43/95/137 50/90/132
f 43/95/137 44/96/138 50/90/132
f 44/96/138 45/97/139 50/90/132
f 45/97/139 46/98/140 50/90/132
f 46/98/140 47/99/141 50/90/132
f 47/99/141 48/100/142 50/90/132
f 48/100/142 37/88/130 50/90/132
