# Blender 4.0.0
# www.blender.org
mtllib tree2.mtl
o tree2
v -45.557442 0.000000 -50.106228
v -46.423466 0.000000 -49.606228
v -46.423466 0.000000 -48.606228
v -45.557442 0.000000 -48.106228
v -44.691418 0.000000 -48.606228
v -44.691418 0.000000 -49.606228
v -45.557442 2.435419 -49.760143
v -46.123749 2.435419 -49.433186
v -46.123749 2.435419 -48.779270
v -45.557442 2.435419 -48.452312
v -44.991135 2.435419 -48.779270
v -44.991135 2.435419 -49.433186
v -45.557442 3.962909 -51.574047
v -47.694637 3.962909 -50.340137
v -47.694637 3.962909 -47.872318
v -45.557442 3.962909 -46.638409
v -43.420246 3.962909 -47.872318
v -43.420246 3.962909 -50.340137
v -45.557442 5.337058 -51.490314
v -47.622120 5.337058 -50.298271
v -47.622120 5.337058 -47.914185
v -45.557442 5.337058 -46.722141
v -43.492764 5.337058 -47.914185
v -43.492764 5.337058 -50.298271
v -45.557442 6.618961 -50.860401
v -47.076599 6.618961 -49.983315
v -47.076599 6.618961 -48.229141
v -45.557442 6.618961 -47.352055
v -44.038284 6.618961 -48.229141
v -44.038284 6.618961 -49.983315
v -45.557442 7.508962 -49.746971
v -46.112343 7.508962 -49.426598
v -46.112343 7.508962 -48.785858
v -45.557442 7.508962 -48.465485
v -45.002541 7.508962 -48.785858
v -45.002541 7.508962 -49.426598
v -43.914101 3.199163 -50.055012
v -45.557442 3.199163 -51.003796
v -45.557442 3.199163 -47.208660
v -43.914101 3.199163 -48.157444
v -47.200783 3.199163 -50.055012
v -47.200783 3.199163 -48.157444
vn -0.4963 0.1221 -0.8595
vn 0.4963 0.1221 -0.8595
vn 0.4963 0.1221 0.8595
vn -0.9925 0.1221 -0.0000
vn 0.9925 0.1221 -0.0000
vn -0.4963 0.1221 0.8595
vn 0.4199 -0.5430 -0.7272
vn 0.4199 -0.5430 0.7272
vn -0.8397 -0.5430 -0.0000
vn 0.8397 -0.5430 -0.0000
vn -0.4199 -0.5430 0.7272
vn -0.4199 -0.5430 -0.7272
vn 0.9986 0.0527 -0.0000
vn -0.4993 0.0527 0.8648
vn -0.4993 0.0527 -0.8648
vn 0.4993 0.0527 -0.8648
vn 0.4993 0.0527 0.8648
vn -0.9986 0.0527 -0.0000
vn 0.4601 0.3916 0.7969
vn -0.9201 0.3916 -0.0000
vn 0.9201 0.3916 -0.0000
vn -0.4601 0.3916 0.7969
vn -0.4601 0.3916 -0.7969
vn 0.4601 0.3916 -0.7969
vn -0.3391 0.7348 0.5874
vn -0.3391 0.7348 -0.5874
vn 0.3391 0.7348 -0.5874
vn 0.3391 0.7348 0.5874
vn -0.6782 0.7348 -0.0000
vn 0.6782 0.7348 -0.0000
vn -0.0000 1.0000 -0.0000
vn -0.2892 -0.8157 -0.5009
vn -0.2892 -0.8157 0.5009
vn 0.5784 -0.8157 -0.0000
vn -0.5784 -0.8157 -0.0000
vn 0.2892 -0.8157 0.5009
vn 0.2892 -0.8157 -0.5009
vt 0.000000 0.000000
s 0
usemtl tree2
f 37/1/7 38/1/7 13/1/7 18/1/7
f 39/1/8 40/1/8 17/1/8 16/1/8
f 41/1/9 42/1/9 15/1/9 14/1/9
f 40/1/10 37/1/10 18/1/10 17/1/10
f 42/1/11 39/1/11 16/1/11 15/1/11
f 38/1/12 41/1/12 14/1/12 13/1/12
f 17/1/13 18/1/13 24/1/13 23/1/13
f 15/1/14 16/1/14 22/1/14 21/1/14
f 13/1/15 14/1/15 20/1/15 19/1/15
f 18/1/16 13/1/16 19/1/16 24/1/16
f 16/1/17 17/1/17 23/1/17 22/1/17
f 14/1/18 15/1/18 21/1/18 20/1/18
f 22/1/19 23/1/19 29/1/19 28/1/19
f 20/1/20 21/1/20 27/1/20 26/1/20
f 23/1/21 24/1/21 30/1/21 29/1/21
f 21/1/22 22/1/22 28/1/22 27/1/22
f 19/1/23 20/1/23 26/1/23 25/1/23
f 24/1/24 19/1/24 25/1/24 30/1/24
f 27/1/25 28/1/25 34/1/25 33/1/25
f 25/1/26 26/1/26 32/1/26 31/1/26
f 30/1/27 25/1/27 31/1/27 36/1/27
f 28/1/28 29/1/28 35/1/28 34/1/28
f 26/1/29 27/1/29 33/1/29 32/1/29
f 29/1/30 30/1/30 36/1/30 35/1/30
f 32/1/31 33/1/31 34/1/31 35/1/31 36/1/31 31/1/31
f 7/1/32 8/1/32 41/1/32 38/1/32
f 9/1/33 10/1/33 39/1/33 42/1/33
f 11/1/34 12/1/34 37/1/34 40/1/34
f 8/1/35 9/1/35 42/1/35 41/1/35
f 10/1/36 11/1/36 40/1/36 39/1/36
f 12/1/37 7/1/37 38/1/37 37/1/37
usemtl tree2_trunk
f 1/1/1 2/1/1 8/1/1 7/1/1
f 6/1/2 1/1/2 7/1/2 12/1/2
f 4/1/3 5/1/3 11/1/3 10/1/3
f 2/1/4 3/1/4 9/1/4 8/1/4
f 5/1/5 6/1/5 12/1/5 11/1/5
f 3/1/6 4/1/6 10/1/6 9/1/6
